<?xml version="1.0" encoding="utf-8"?>
<!-- Generator: Adobe Illustrator 17.1.0, SVG Export Plug-In . SVG Version: 6.00 Build 0)  -->
<!DOCTYPE svg PUBLIC "-//W3C//DTD SVG 1.1//EN" "http://www.w3.org/Graphics/SVG/1.1/DTD/svg11.dtd">
<svg version="1.1" xmlns="http://www.w3.org/2000/svg" xmlns:xlink="http://www.w3.org/1999/xlink" x="0px" y="0px"
	 viewBox="0 0 679 459" enable-background="new 0 0 679 459" xml:space="preserve">
<g id="Layer_1" display="none">
	<rect x="-720.6" y="0" display="inline" fill="#009688" width="679" height="459"/>
	<rect x="0" y="0" display="inline" fill="#009688" width="679" height="459"/>
	<text transform="matrix(1 0 0 1 -720.575 504.6973)" display="inline" font-family="'Myriad-Roman'" font-size="29.1275">Century Gothic, Maven Pro</text>
</g>
<g id="Layer_2">
</g>
<g id="Layer_5">
</g>
<g id="Layer_6">
</g>
<g id="Layer_3">
	<text transform="matrix(1 0 0 1 -4006.248 -7960.5068)" fill="#3B661E" font-family="'MyriadPro-Regular'" font-size="12">SWIRL SNIFF SLURP SWALLOW</text>
	<title>Layer 1</title>
	<g>
		<g>
			<path fill="#815998" d="M-1734.3,550.9c0,0,0.7-2,1.5-2s1.5,2,1.5,2s-0.7,2-1.5,2S-1734.3,550.9-1734.3,550.9z"/>
		</g>
	</g>
	<g>
		<path fill="#FFFFFF" d="M-548.6,187c-23.5,0-42.5,19.1-42.5,42.5c0,1.8,0.1,3.6,0.3,5.3h36.6v12.4h-33.1
			c6.7,14.7,21.5,24.9,38.7,24.9c23.5,0,42.5-19.1,42.5-42.5C-506,206-525.1,187-548.6,187z M-542.4,231.9c-6.1,0-11.1-5-11.1-11.1
			c0-6.1,5-11.1,11.1-11.1c6.1,0,11.1,5,11.1,11.1C-531.3,227-536.3,231.9-542.4,231.9z"/>
		<g>
			<path fill="#FFFFFF" d="M-473,218v12.5c0,6.7-3.9,10.7-10.4,10.7c-6.5,0-10.3-4-10.3-10.7V218h5.6v13.3c0,3.7,1.4,5.2,4.8,5.2
				c3.4,0,4.8-1.5,4.8-5.2V218H-473z"/>
			<path fill="#FFFFFF" d="M-448.2,227.1v13.8h-5.5v-14.2c0-2-0.4-4.2-5.4-4.2c-1.6,0-3,0.2-4.3,0.4v18h-5.5v-20.7
				c0.2-0.1,4.7-2.5,10.5-2.5C-451.9,217.6-448.2,221.1-448.2,227.1z"/>
			<path fill="#FFFFFF" d="M-434.1,217.6c1.3,0,2.6,0.1,3.8,0.4v-8.8h5.5v24.3c0,3.7-2.6,7.7-9.7,7.7c-3.1,0-10.2-1.2-10.2-12.1
				C-444.7,221.7-440.9,217.6-434.1,217.6z M-434.5,236.5c2.5,0,4.2-0.5,4.2-2.5v-11.7c-1-0.2-2.2-0.4-3.6-0.4
				c-3.2,0-5.3,1.5-5.3,6.9C-439.2,234.1-438,236.5-434.5,236.5z"/>
			<path fill="#FFFFFF" d="M-402.5,234.7v4.5c-2.1,1.1-5,2.1-8.6,2.1c-4.5,0-10.6-1.8-10.6-11.6c0-6.8,2.8-12.1,10.2-12.1
				c7.2,0,10.2,5.4,10.2,11.1c0,1,0,1.9-0.1,2.8h-14.7c0.3,4.4,3.2,5,5.8,5C-407,236.5-404.4,235.6-402.5,234.7z M-416.1,227.7h9.2
				c-0.3-2.9-1.7-5.6-4.6-5.6C-414.2,222-415.8,223.6-416.1,227.7z"/>
			<path fill="#FFFFFF" d="M-386.8,217.6v4.8c-3.1,0-5.1,0.5-5.9,0.8v17.7h-5.5V220C-398.2,220-393.3,217.7-386.8,217.6z"/>
			<path fill="#FFFFFF" d="M-368.6,234.5c0,3.8-3.3,6.7-8.5,6.7c-2.9,0-5.3-0.8-7.3-1.9v-4.9c1.7,1.1,3.9,2,6.5,2
				c3.5,0,3.8-1,3.8-2.2c0-3.8-10.9-1.6-10.9-9.5c0-4.8,3.9-7.2,8.5-7.2c2.4,0,4.5,0.6,6.2,1.7v4.2c-1.4-0.6-3.1-1.1-5.3-1.1
				c-2.3,0-3.9,0.5-3.9,1.9C-379.5,227.8-368.6,225.2-368.6,234.5z"/>
			<path fill="#FFFFFF" d="M-354.5,236.5c2.1,0,4-0.5,5.7-1.1v4.6c-2,0.8-4.2,1.3-6.6,1.3c-7,0-10.8-4.2-10.8-11.8
				c0-7.6,3.9-11.8,10.8-11.8c2.4,0,4.6,0.5,6.6,1.3v4.6c-1.7-0.7-3.6-1.1-5.7-1.1c-3.9,0-6.2,1.1-6.2,7.1
				C-360.7,235.3-358.3,236.5-354.5,236.5z"/>
			<path fill="#FFFFFF" d="M-325.7,229.4c0,7.6-3.9,11.8-10.8,11.8c-7,0-10.8-4.2-10.8-11.8c0-7.6,3.9-11.8,10.8-11.8
				C-329.6,217.6-325.7,221.8-325.7,229.4z M-331.2,229.4c0-6.1-2.1-7.3-5.3-7.3c-3.3,0-5.3,1.2-5.3,7.3c0,6.1,2.1,7.3,5.3,7.3
				C-333.3,236.7-331.2,235.5-331.2,229.4z"/>
			<path fill="#FFFFFF" d="M-311.2,217.6v4.8c-3.1,0-5.1,0.5-5.9,0.8v17.7h-5.5V220C-322.6,220-317.7,217.7-311.2,217.6z"/>
			<path fill="#FFFFFF" d="M-290.4,234.7v4.5c-2.1,1.1-5,2.1-8.6,2.1c-4.5,0-10.6-1.8-10.6-11.6c0-6.8,2.8-12.1,10.2-12.1
				c7.2,0,10.2,5.4,10.2,11.1c0,1,0,1.9-0.1,2.8H-304c0.3,4.4,3.2,5,5.8,5C-294.9,236.5-292.3,235.6-290.4,234.7z M-304,227.7h9.2
				c-0.3-2.9-1.7-5.6-4.6-5.6C-302.1,222-303.7,223.6-304,227.7z"/>
			<path fill="#FFFFFF" d="M-279,240.9h-5.4v-5.1h5.4V240.9z"/>
			<path fill="#FFFFFF" d="M-256.8,234.5c0,3.8-3.3,6.7-8.5,6.7c-2.9,0-5.3-0.8-7.3-1.9v-4.9c1.7,1.1,3.9,2,6.5,2
				c3.5,0,3.8-1,3.8-2.2c0-3.8-10.9-1.6-10.9-9.5c0-4.8,3.9-7.2,8.5-7.2c2.4,0,4.5,0.6,6.2,1.7v4.2c-1.4-0.6-3.1-1.1-5.3-1.1
				c-2.3,0-3.9,0.5-3.9,1.9C-267.8,227.8-256.8,225.2-256.8,234.5z"/>
			<path fill="#FFFFFF" d="M-246.3,222.7V234c0,2,0.8,2.5,2.8,2.5c1.1,0,1.9-0.2,2.6-0.5v4.5c-1.1,0.5-2.3,0.7-3.6,0.7
				c-4.5,0-7.3-2.8-7.3-7.6v-11h-3.9V218h3.9v-6.8h5.5v6.8h5.4v4.7H-246.3z"/>
			<path fill="#FFFFFF" d="M-226.4,217.6v4.8c-3.1,0-5.1,0.5-5.9,0.8v17.7h-5.5V220C-237.8,220-233,217.7-226.4,217.6z"/>
			<path fill="#FFFFFF" d="M-223.5,214.8v-5h5.6v5H-223.5z M-223.4,240.9V218h5.5v22.9H-223.4z"/>
			<path fill="#FFFFFF" d="M-192.1,227.1v13.8h-5.5v-14.2c0-2-0.4-4.2-5.4-4.2c-1.6,0-3,0.2-4.3,0.4v18h-5.5v-20.7
				c0.2-0.1,4.7-2.5,10.5-2.5C-195.9,217.6-192.1,221.1-192.1,227.1z"/>
			<path fill="#FFFFFF" d="M-169,225.1v16.3c0,3.1-1.3,8.4-10.3,8.4c-2.8,0-5-0.4-6.6-0.9V244c1.4,0.5,3.4,0.9,6,0.9
				c5.5,0,5.5-2,5.5-3.5v-1.2c-1.1,0.2-2.3,0.4-3.5,0.4c-6.7,0-10.3-4-10.3-11.2c0-10.6,7-11.8,10-11.8
				C-171.4,217.6-169,221.5-169,225.1z M-174.5,225.1c0-2.1-1.8-2.6-3.9-2.6c-2.8,0-4.5,1.7-4.5,6.9c0,5.5,1.9,6.6,5,6.6
				c1.3,0,2.4-0.1,3.3-0.3V225.1z"/>
		</g>
	</g>
	<text transform="matrix(1 0 0 1 -998.6896 430.1353)" font-family="'MavenProRegular'" font-size="32.7196">underscore.string</text>
	<text transform="matrix(1 0 0 1 -998.6898 459)" font-family="'CenturyGothic-Bold'" font-size="22.8223">underscore.string</text>
	<g>
		<g>
			<path fill="#FFFFFF" d="M243.6,219.3h5.3v10c0,2,0.1,3.3,0.4,4.1c0.3,0.8,0.7,1.3,1.3,1.8c0.6,0.4,1.3,0.6,2.2,0.6
				c0.9,0,1.6-0.2,2.2-0.6c0.6-0.4,1.1-1,1.4-1.8c0.2-0.6,0.3-1.9,0.3-3.8v-10.2h5.2v8.8c0,3.6-0.3,6.1-0.9,7.5
				c-0.7,1.6-1.7,2.9-3.1,3.8c-1.4,0.9-3.1,1.3-5.2,1.3c-2.3,0-4.1-0.5-5.5-1.5c-1.4-1-2.4-2.4-3-4.3c-0.4-1.3-0.6-3.6-0.6-6.9
				V219.3z"/>
			<path fill="#FFFFFF" d="M267.2,219.3h5.2v2.1c1.2-1,2.3-1.7,3.2-2.1c1-0.4,1.9-0.6,3-0.6c2.1,0,3.8,0.7,5.3,2.2
				c1.2,1.2,1.8,3,1.8,5.4v13.8h-5.2V231c0-2.5-0.1-4.1-0.3-5c-0.2-0.8-0.6-1.4-1.2-1.9c-0.6-0.4-1.2-0.6-2.1-0.6
				c-1.1,0-2,0.4-2.7,1.1c-0.8,0.7-1.3,1.7-1.6,2.9c-0.2,0.7-0.2,2.1-0.2,4.2v8.4h-5.2V219.3z"/>
			<path fill="#FFFFFF" d="M306.1,211.3h5.2v28.9h-5.2v-2.2c-1,1-2,1.7-3.1,2.1c-1,0.4-2.1,0.6-3.3,0.6c-2.7,0-5-1-7-3.1
				c-2-2.1-2.9-4.7-2.9-7.8c0-3.2,0.9-5.9,2.9-7.9c1.9-2.1,4.2-3.1,6.9-3.1c1.2,0,2.4,0.2,3.5,0.7c1.1,0.5,2.1,1.2,3,2.1V211.3z
				 M300.6,223.6c-1.6,0-3,0.6-4,1.7c-1.1,1.1-1.6,2.6-1.6,4.4c0,1.8,0.5,3.3,1.6,4.4c1.1,1.2,2.4,1.7,4,1.7c1.6,0,3-0.6,4.1-1.7
				c1.1-1.1,1.6-2.6,1.6-4.5c0-1.8-0.5-3.3-1.6-4.4C303.6,224.1,302.2,223.6,300.6,223.6z"/>
			<path fill="#FFFFFF" d="M337.5,231.2h-16.8c0.2,1.5,0.9,2.7,1.9,3.5c1.1,0.9,2.4,1.3,4,1.3c2,0,3.6-0.7,5-2l4.4,2.1
				c-1.1,1.6-2.4,2.7-3.9,3.5c-1.5,0.7-3.4,1.1-5.5,1.1c-3.3,0-5.9-1-8-3.1c-2.1-2.1-3.1-4.6-3.1-7.7c0-3.2,1-5.8,3.1-7.9
				c2-2.1,4.6-3.1,7.7-3.1c3.3,0,5.9,1.1,8,3.1c2.1,2.1,3.1,4.9,3.1,8.3L337.5,231.2z M332.2,227.1c-0.3-1.2-1-2.1-2-2.8
				c-1-0.7-2.2-1.1-3.5-1.1c-1.5,0-2.7,0.4-3.8,1.2c-0.7,0.5-1.3,1.4-1.9,2.7H332.2z"/>
			<path fill="#FFFFFF" d="M340.5,219.3h4.5v2.6c0.5-1,1.1-1.8,1.9-2.4c0.8-0.5,1.7-0.8,2.6-0.8c0.7,0,1.4,0.2,2.1,0.5l-1.6,4.5
				c-0.6-0.3-1.1-0.5-1.5-0.5c-0.8,0-1.5,0.5-2,1.5c-0.6,1-0.8,2.9-0.8,5.9l0,1v8.4h-5.2V219.3z"/>
			<path fill="#FFFFFF" d="M367,222.2l-3.2,3.2c-1.3-1.3-2.5-2-3.6-2c-0.6,0-1,0.1-1.4,0.4c-0.3,0.2-0.5,0.6-0.5,0.9
				c0,0.3,0.1,0.5,0.3,0.8c0.2,0.2,0.7,0.6,1.6,1l1.9,1c2,1,3.4,2,4.2,3c0.8,1,1.1,2.2,1.1,3.6c0,1.9-0.7,3.4-2,4.6
				c-1.4,1.2-3.2,1.9-5.5,1.9c-3,0-5.5-1.2-7.3-3.6l3.2-3.5c0.6,0.7,1.3,1.3,2.2,1.7c0.8,0.4,1.6,0.7,2.2,0.7c0.7,0,1.2-0.2,1.7-0.5
				c0.4-0.3,0.6-0.7,0.6-1.1c0-0.8-0.8-1.6-2.3-2.4l-1.8-0.9c-3.4-1.7-5.1-3.8-5.1-6.4c0-1.6,0.6-3.1,1.9-4.2
				c1.3-1.2,2.9-1.8,4.9-1.8c1.4,0,2.6,0.3,3.8,0.9C365.1,220.2,366.2,221.1,367,222.2z"/>
			<path fill="#FFFFFF" d="M391.9,223.5l-4.4,2.4c-0.8-0.9-1.6-1.5-2.4-1.8c-0.8-0.3-1.7-0.5-2.8-0.5c-2,0-3.5,0.6-4.7,1.7
				c-1.2,1.2-1.8,2.7-1.8,4.5c0,1.8,0.6,3.2,1.7,4.3c1.2,1.1,2.7,1.7,4.6,1.7c2.3,0,4.2-0.8,5.5-2.4l4.1,2.8
				c-2.2,2.9-5.4,4.4-9.5,4.4c-3.7,0-6.5-1.1-8.6-3.3c-2.1-2.2-3.1-4.7-3.1-7.6c0-2,0.5-3.9,1.5-5.6c1-1.7,2.4-3,4.2-4
				c1.8-1,3.8-1.5,6.1-1.5c2.1,0,3.9,0.4,5.6,1.2C389.5,220.8,390.8,222,391.9,223.5z"/>
			<path fill="#FFFFFF" d="M406.4,218.8c2,0,3.8,0.5,5.5,1.5c1.7,1,3.1,2.3,4.1,4c1,1.7,1.5,3.5,1.5,5.5c0,2-0.5,3.8-1.5,5.5
				c-1,1.7-2.3,3-4,4c-1.7,1-3.5,1.4-5.6,1.4c-3,0-5.5-1.1-7.6-3.2c-2.1-2.1-3.2-4.7-3.2-7.7c0-3.3,1.2-6,3.6-8.1
				C401.2,219.7,403.7,218.8,406.4,218.8z M406.5,223.7c-1.6,0-3,0.6-4.1,1.7c-1.1,1.1-1.6,2.6-1.6,4.3c0,1.8,0.5,3.3,1.6,4.4
				c1.1,1.1,2.4,1.7,4.1,1.7c1.6,0,3-0.6,4.1-1.7c1.1-1.1,1.6-2.6,1.6-4.4c0-1.8-0.5-3.2-1.6-4.4
				C409.5,224.2,408.1,223.7,406.5,223.7z"/>
			<path fill="#FFFFFF" d="M420.5,219.3h4.5v2.6c0.5-1,1.1-1.8,1.9-2.4c0.8-0.5,1.7-0.8,2.6-0.8c0.7,0,1.4,0.2,2.1,0.5l-1.6,4.5
				c-0.6-0.3-1.1-0.5-1.5-0.5c-0.8,0-1.5,0.5-2,1.5c-0.6,1-0.8,2.9-0.8,5.9l0,1v8.4h-5.2V219.3z"/>
			<path fill="#FFFFFF" d="M455.1,231.2h-16.8c0.2,1.5,0.9,2.7,1.9,3.5c1.1,0.9,2.4,1.3,4,1.3c2,0,3.6-0.7,5-2l4.4,2.1
				c-1.1,1.6-2.4,2.7-3.9,3.5c-1.5,0.7-3.4,1.1-5.5,1.1c-3.3,0-5.9-1-8-3.1c-2.1-2.1-3.1-4.6-3.1-7.7c0-3.2,1-5.8,3.1-7.9
				c2-2.1,4.6-3.1,7.7-3.1c3.3,0,5.9,1.1,8,3.1c2.1,2.1,3.1,4.9,3.1,8.3L455.1,231.2z M449.9,227.1c-0.3-1.2-1-2.1-2-2.8
				c-1-0.7-2.2-1.1-3.5-1.1c-1.5,0-2.7,0.4-3.8,1.2c-0.7,0.5-1.3,1.4-1.9,2.7H449.9z"/>
			<path fill="#FFFFFF" d="M462.2,234.7c0.8,0,1.5,0.3,2.1,0.9c0.6,0.6,0.9,1.3,0.9,2.1c0,0.8-0.3,1.5-0.9,2.1
				c-0.6,0.6-1.3,0.9-2.1,0.9c-0.8,0-1.5-0.3-2.1-0.9c-0.6-0.6-0.9-1.3-0.9-2.1c0-0.8,0.3-1.5,0.9-2.1
				C460.6,235,461.4,234.7,462.2,234.7z"/>
			<path fill="#FFFFFF" d="M483.1,222.2l-3.2,3.2c-1.3-1.3-2.5-2-3.6-2c-0.6,0-1,0.1-1.4,0.4c-0.3,0.2-0.5,0.6-0.5,0.9
				c0,0.3,0.1,0.5,0.3,0.8c0.2,0.2,0.7,0.6,1.6,1l1.9,1c2,1,3.4,2,4.2,3c0.8,1,1.1,2.2,1.1,3.6c0,1.9-0.7,3.4-2,4.6
				c-1.4,1.2-3.2,1.9-5.5,1.9c-3,0-5.5-1.2-7.3-3.6l3.2-3.5c0.6,0.7,1.3,1.3,2.2,1.7c0.8,0.4,1.6,0.7,2.2,0.7c0.7,0,1.2-0.2,1.7-0.5
				c0.4-0.3,0.6-0.7,0.6-1.1c0-0.8-0.8-1.6-2.3-2.4l-1.8-0.9c-3.4-1.7-5.1-3.8-5.1-6.4c0-1.6,0.6-3.1,1.9-4.2
				c1.3-1.2,2.9-1.8,4.9-1.8c1.4,0,2.6,0.3,3.8,0.9C481.2,220.2,482.2,221.1,483.1,222.2z"/>
			<path fill="#FFFFFF" d="M488.2,211.6h5.2v7.7h3.1v4.5h-3.1v16.3h-5.2v-16.3h-2.7v-4.5h2.7V211.6z"/>
			<path fill="#FFFFFF" d="M498.1,219.3h4.5v2.6c0.5-1,1.1-1.8,1.9-2.4c0.8-0.5,1.7-0.8,2.6-0.8c0.7,0,1.4,0.2,2.1,0.5l-1.6,4.5
				c-0.6-0.3-1.1-0.5-1.5-0.5c-0.8,0-1.5,0.5-2,1.5c-0.6,1-0.8,2.9-0.8,5.9l0,1v8.4h-5.2V219.3z"/>
			<path fill="#FFFFFF" d="M513.9,210.7c0.9,0,1.7,0.3,2.4,1c0.7,0.7,1,1.5,1,2.4c0,0.9-0.3,1.7-1,2.4c-0.6,0.7-1.4,1-2.3,1
				c-0.9,0-1.7-0.3-2.4-1c-0.7-0.7-1-1.5-1-2.4c0-0.9,0.3-1.7,1-2.4C512.2,211,513,210.7,513.9,210.7z M511.3,219.3h5.2v20.8h-5.2
				V219.3z"/>
			<path fill="#FFFFFF" d="M521.3,219.3h5.2v2.1c1.2-1,2.3-1.7,3.2-2.1c1-0.4,1.9-0.6,3-0.6c2.1,0,3.8,0.7,5.3,2.2
				c1.2,1.2,1.8,3,1.8,5.4v13.8h-5.2V231c0-2.5-0.1-4.1-0.3-5c-0.2-0.8-0.6-1.4-1.2-1.9c-0.6-0.4-1.2-0.6-2.1-0.6
				c-1.1,0-2,0.4-2.7,1.1c-0.8,0.7-1.3,1.7-1.6,2.9c-0.2,0.7-0.2,2.1-0.2,4.2v8.4h-5.2V219.3z"/>
			<path fill="#FFFFFF" d="M560.2,219.3h5.2v17.8c0,3.5-0.7,6.1-2.1,7.8c-1.9,2.2-4.8,3.4-8.6,3.4c-2,0-3.8-0.3-5.2-0.8
				c-1.4-0.5-2.6-1.3-3.5-2.2c-1-1-1.7-2.2-2.1-3.6h5.8c0.5,0.6,1.2,1,2,1.3c0.8,0.3,1.8,0.5,2.9,0.5c1.4,0,2.5-0.2,3.4-0.7
				c0.9-0.4,1.5-1,1.8-1.7c0.4-0.7,0.5-1.9,0.5-3.6c-0.9,0.9-1.9,1.6-2.9,2c-1,0.4-2.2,0.6-3.4,0.6c-2.8,0-5.2-1-7.1-3
				c-1.9-2-2.9-4.6-2.9-7.7c0-3.3,1-6,3.1-8c1.9-1.8,4.1-2.7,6.6-2.7c1.2,0,2.3,0.2,3.4,0.7c1.1,0.4,2.1,1.2,3.2,2.2V219.3z
				 M554.8,223.6c-1.6,0-3,0.6-4.1,1.7c-1.1,1.1-1.6,2.5-1.6,4.2c0,1.7,0.5,3.2,1.6,4.3c1.1,1.1,2.5,1.7,4.1,1.7c1.6,0,3-0.5,4-1.6
				c1.1-1.1,1.6-2.5,1.6-4.3c0-1.7-0.5-3.1-1.6-4.2C557.8,224.2,556.4,223.6,554.8,223.6z"/>
		</g>
		<path fill="#FFFFFF" d="M221,220.2l-0.7,0.2c-0.6,0.2-1.2,0.4-1.9,0.6c-4.1-24.5-25.4-43.3-51-43.3c-28.5,0-51.7,23.2-51.7,51.7
			c0,28.5,23.2,51.7,51.7,51.7c28.5,0,51.7-23.2,51.7-51.7c0,0,0-0.1,0-0.1c-0.7,0.1-1.4,0.3-2.1,0.5c-1.4,0.3-2.8,0.7-4.2,1.1
			c-0.8,24.4-20.8,44-45.4,44c-25.1,0-45.5-20.4-45.5-45.5c0-25.1,20.4-45.5,45.5-45.5c22.8,0,41.8,16.9,45,38.9
			c-2.3,0.7-4.5,1.5-6.8,2.4c-3.3,1.3-6.5,2.7-9.8,4.1c-0.4,0.2-0.9,0.4-1.3,0.6c-0.2-0.5-0.4-1-0.5-1.5c-0.2-1.2-0.2-2.3,0.3-3.4
			c0.5-1.2,1.2-2.2,2.2-3.1c0.7-0.6,1.4-1.3,2.3-1.7c0.2-0.1,0.3-0.2,0.5-0.2c0.1,0,0.2-0.1,0.3-0.1c0,0,0,0,0,0
			c0.1,0,0.2-0.1,0.3-0.1c0.1,0,0.2-0.1,0.2-0.1c2-2.1-2.5-2.6-5.1-4.1c-0.1-0.1-0.2,0.2-0.2,0.3c-0.2,0.2-0.3,0.3-0.5,0.5
			c-4.8,4.3-18.1,16.2-22.8,19.9c-0.1,0.1-0.3,0.1-0.4,0c-0.1-0.1-0.2-0.3-0.1-0.4c1-2.5,1.6-4.3,3.8-8.3c1.9-3.5,3.7-6.3,6.3-9.3
			c-0.9-0.4-2.7-1-5.5-2.7c0,0-0.1,0-0.1,0.1c0,0,0,0,0.1,0c0,0,0,0,0,0c0,0,0,0-0.1-0.1c0,0,0,0.1,0,0.1c-0.1,0.1-0.1,0.2-0.2,0.3
			c-7.6,8.8-28.4,29.3-33,24.7c-2.5-2.5,4.7-15.3,24.5-35.2c0.4-0.5,0.9-0.9,1.3-1.4c0.5-1-2.9-4.8-7.5-7.1
			c-11.1,2-29.8,32.9-27.8,43.6c0.1,0.5,0.2,1,0.4,1.5c3.8,7.4,16.4,1.8,19.3,0.2c1.9-1.1,3.8-2.3,5.6-3.6c1.9-1.3,3.7-2.8,5.4-4.3
			c1.2-1.1,2.4-2.3,3.6-3.4c-0.5,1-0.9,2-1.4,3c-0.4,1-0.7,2-0.9,3.1c-0.3,2.7,3.7,3.2,5,3.3c0.2,0,1.3-0.7,1.4-0.9
			c1.3-1,8.2-6.3,17.6-12.8c0.1,1.2,0.5,2.4,1,3.5c0.3,0.6,0.6,1.3,0.9,1.9c-1.2,0.6-2.3,1.2-3.4,1.9c-4.7,2.8-9.6,6-13.5,9.9
			c-1.5,1.5-3.1,3.1-4.2,4.9c-0.8,1.4-1.6,2.9-1.4,4.6c0.1,0.6,0.1,0.8,0.3,1.3c1.1,2.4,4,3.5,6.3,4.3c1.6,0.4,3.1,0.5,4.7,0.2
			c2.1-0.4,3.9-1.1,5.7-2.2c2-1.2,3.9-2.5,5.7-4c1.6-1.4,3.1-2.8,4.3-4.6c1-1.6,1.9-3.2,2.3-5c0.3-1.6,0.5-3.2,0.3-4.8
			c-0.2-1.3-0.5-2.7-0.9-4c-0.1-0.4-0.3-0.8-0.4-1.2c0.9-0.5,1.9-1,2.9-1.4c3.2-1.5,6.4-2.8,9.7-4c2.9-1.1,5.9-1.9,8.9-2.6
			c2.2-0.5,4.4-0.9,6.5-1.3l0.8-0.2C225.9,223,222,219.2,221,220.2z M191.5,241.3c-0.3,1.6-1,3.1-1.9,4.5c-1,1.6-2.4,3-3.8,4.3
			c-1.6,1.5-3.5,2.7-5.4,3.7c-1.7,0.9-3.6,1.4-5.5,1.5c-0.7,0-1.3,0-1.9-0.1c-0.1-0.1-0.1-0.2-0.2-0.3c-0.5-1.2,0-2.4,0.5-3.6
			c0.9-1.8,2.3-3.3,3.6-4.8c1.7-1.8,3.6-3.4,5.5-5c2.3-1.9,4.8-3.5,7.3-5c0.5-0.3,1-0.6,1.5-0.8c0.1,0.4,0.2,0.8,0.3,1.2
			C191.7,238.5,191.7,239.9,191.5,241.3z"/>
	</g>
</g>
</svg>
